<svg width="37" height="20" viewBox="0 0 37 20" fill="none" xmlns="http://www.w3.org/2000/svg">
<path d="M11.0303 8.288C10.8663 8.288 10.7303 8.236 10.6223 8.132C10.5183 8.032 10.4303 7.89 10.3583 7.706C10.3223 7.61 10.2883 7.452 10.2563 7.232C10.2243 7.008 10.1943 6.748 10.1663 6.452C10.1383 6.156 10.1123 5.848 10.0883 5.528C10.0683 5.204 10.0503 4.888 10.0343 4.58C10.0183 4.272 10.0063 3.996 9.99828 3.752C9.99028 3.504 9.98628 3.314 9.98628 3.182C9.98628 2.714 10.0163 2.318 10.0763 1.994C10.1403 1.666 10.2543 1.416 10.4183 1.244C10.5823 1.068 10.8203 0.98 11.1323 0.98C11.3483 0.98 11.5623 1.068 11.7743 1.244C11.9863 1.416 12.2343 1.69 12.5183 2.066C12.8023 2.442 13.1543 2.932 13.5743 3.536C14.1343 4.36 14.5843 4.972 14.9243 5.372C15.2643 5.768 15.5083 5.966 15.6563 5.966C15.7283 5.966 15.7863 5.948 15.8303 5.912C15.8783 5.876 15.9143 5.804 15.9383 5.696C15.9663 5.584 15.9843 5.416 15.9923 5.192C16.0003 5.096 16.0043 4.95 16.0043 4.754C16.0043 4.558 16.0023 4.338 15.9983 4.094C15.9983 3.846 15.9963 3.592 15.9923 3.332C15.9883 3.072 15.9863 2.826 15.9863 2.594C15.9863 2.362 15.9863 2.164 15.9863 2C15.9903 1.836 15.9963 1.726 16.0043 1.67C16.0523 1.43 16.1303 1.264 16.2383 1.172C16.3463 1.08 16.4963 1.034 16.6883 1.034C16.8323 1.034 16.9523 1.06 17.0483 1.112C17.1483 1.16 17.2283 1.234 17.2883 1.334C17.3523 1.43 17.3983 1.556 17.4263 1.712C17.4583 1.864 17.4783 2.044 17.4863 2.252C17.4903 2.372 17.4943 2.546 17.4983 2.774C17.5023 3.002 17.5063 3.262 17.5103 3.554C17.5143 3.842 17.5143 4.142 17.5103 4.454C17.5103 4.766 17.5063 5.07 17.4983 5.366C17.4943 5.658 17.4863 5.924 17.4743 6.164C17.4623 6.404 17.4443 6.596 17.4203 6.74C17.3723 7.048 17.2983 7.306 17.1983 7.514C17.1023 7.718 16.9723 7.872 16.8083 7.976C16.6483 8.076 16.4423 8.126 16.1903 8.126C15.9623 8.126 15.7123 8.012 15.4403 7.784C15.1683 7.552 14.8743 7.234 14.5583 6.83C14.2463 6.422 13.9123 5.962 13.5563 5.45C13.3283 5.122 13.1163 4.82 12.9203 4.544C12.7243 4.264 12.5503 4.022 12.3983 3.818C12.2503 3.61 12.1243 3.45 12.0203 3.338C11.9163 3.222 11.8383 3.164 11.7863 3.164C11.6943 3.164 11.6303 3.218 11.5943 3.326C11.5583 3.43 11.5403 3.642 11.5403 3.962C11.5403 4.146 11.5443 4.35 11.5523 4.574C11.5603 4.794 11.5703 5.022 11.5823 5.258C11.5943 5.494 11.6083 5.732 11.6243 5.972C11.6403 6.208 11.6523 6.438 11.6603 6.662C11.6683 6.882 11.6723 7.086 11.6723 7.274C11.6763 7.462 11.6723 7.624 11.6603 7.76C11.6163 7.964 11.5423 8.102 11.4383 8.174C11.3343 8.25 11.1983 8.288 11.0303 8.288ZM22.339 8.624C21.763 8.624 21.235 8.534 20.755 8.354C20.279 8.178 19.865 7.922 19.513 7.586C19.165 7.25 18.895 6.846 18.703 6.374C18.515 5.902 18.421 5.372 18.421 4.784C18.421 4.232 18.507 3.742 18.679 3.314C18.851 2.886 19.087 2.516 19.387 2.204C19.687 1.892 20.027 1.636 20.407 1.436C20.791 1.236 21.195 1.088 21.619 0.991999C22.043 0.891999 22.463 0.842 22.879 0.842C23.491 0.842 24.055 0.932 24.571 1.112C25.087 1.292 25.537 1.55 25.921 1.886C26.305 2.218 26.603 2.618 26.815 3.086C27.027 3.55 27.133 4.07 27.133 4.646C27.133 5.282 27.013 5.848 26.773 6.344C26.533 6.836 26.195 7.252 25.759 7.592C25.323 7.932 24.813 8.188 24.229 8.36C23.649 8.536 23.019 8.624 22.339 8.624ZM22.621 7.052C23.321 7.052 23.881 6.94 24.301 6.716C24.721 6.492 25.025 6.194 25.213 5.822C25.401 5.45 25.495 5.042 25.495 4.598C25.495 4.19 25.427 3.826 25.291 3.506C25.159 3.186 24.973 2.916 24.733 2.696C24.493 2.476 24.215 2.31 23.899 2.198C23.583 2.082 23.243 2.024 22.879 2.024C22.523 2.024 22.183 2.078 21.859 2.186C21.535 2.294 21.247 2.448 20.995 2.648C20.743 2.848 20.543 3.09 20.395 3.374C20.251 3.658 20.179 3.976 20.179 4.328C20.179 4.748 20.239 5.126 20.359 5.462C20.483 5.794 20.653 6.08 20.869 6.32C21.089 6.556 21.347 6.738 21.643 6.866C21.943 6.99 22.269 7.052 22.621 7.052ZM1.49356 19.078C1.22956 19.078 1.03356 18.982 0.905563 18.79C0.781563 18.598 0.719563 18.35 0.719563 18.046C0.719563 17.918 0.719563 17.738 0.719563 17.506C0.719563 17.274 0.721563 17.008 0.725563 16.708C0.729563 16.408 0.733563 16.09 0.737563 15.754C0.745563 15.418 0.753563 15.08 0.761563 14.74C0.773563 14.4 0.787563 14.076 0.803563 13.768C0.819563 13.46 0.837563 13.186 0.857563 12.946C0.901563 12.558 0.979563 12.284 1.09156 12.124C1.20356 11.964 1.38556 11.884 1.63756 11.884C1.84956 11.884 2.00356 11.966 2.09956 12.13C2.19556 12.29 2.25756 12.51 2.28556 12.79C2.29356 12.962 2.30156 13.178 2.30956 13.438C2.31756 13.698 2.32356 13.982 2.32756 14.29C2.33156 14.598 2.33356 14.914 2.33356 15.238C2.33756 15.558 2.33956 15.868 2.33956 16.168C2.33956 16.464 2.33956 16.734 2.33956 16.978C2.33956 17.218 2.33756 17.41 2.33356 17.554C2.33356 17.934 2.30756 18.236 2.25556 18.46C2.20356 18.68 2.11756 18.838 1.99756 18.934C1.88156 19.03 1.71356 19.078 1.49356 19.078ZM4.50556 19.288C4.27756 19.288 4.11556 19.218 4.01956 19.078C3.92356 18.942 3.84356 18.744 3.77956 18.484C3.74756 18.32 3.71956 18.14 3.69556 17.944C3.67156 17.748 3.65356 17.544 3.64156 17.332C3.62956 17.116 3.61956 16.896 3.61156 16.672C3.60756 16.444 3.60556 16.216 3.60556 15.988C3.61356 15.7 3.62556 15.412 3.64156 15.124C3.65756 14.836 3.67956 14.56 3.70756 14.296C3.73556 14.028 3.76756 13.79 3.80356 13.582C3.84356 13.37 3.88556 13.202 3.92956 13.078C4.03356 12.782 4.17156 12.546 4.34356 12.37C4.51556 12.194 4.71356 12.068 4.93756 11.992C5.16156 11.912 5.39556 11.872 5.63956 11.872C5.91956 11.872 6.16156 11.934 6.36556 12.058C6.57356 12.182 6.73356 12.362 6.84556 12.598C6.90956 12.73 6.97356 12.894 7.03756 13.09C7.10156 13.286 7.16156 13.494 7.21756 13.714C7.27756 13.934 7.33156 14.154 7.37956 14.374C7.43156 14.59 7.47556 14.79 7.51156 14.974C7.55556 15.202 7.60556 15.404 7.66156 15.58C7.72156 15.752 7.80956 15.838 7.92556 15.838C8.04156 15.838 8.12756 15.766 8.18356 15.622C8.24356 15.478 8.28956 15.318 8.32156 15.142C8.35356 14.938 8.38956 14.72 8.42956 14.488C8.46956 14.256 8.51356 14.026 8.56156 13.798C8.61356 13.566 8.66756 13.346 8.72356 13.138C8.78356 12.93 8.84356 12.746 8.90356 12.586C9.01156 12.358 9.16356 12.182 9.35956 12.058C9.55956 11.934 9.81556 11.872 10.1276 11.872C10.3596 11.872 10.5716 11.914 10.7636 11.998C10.9556 12.078 11.1276 12.196 11.2796 12.352C11.4316 12.508 11.5596 12.7 11.6636 12.928C11.7556 13.116 11.8336 13.366 11.8976 13.678C11.9656 13.986 12.0176 14.336 12.0536 14.728C12.0896 15.116 12.1116 15.522 12.1196 15.946C12.1196 16.158 12.1196 16.37 12.1196 16.582C12.1196 16.794 12.1156 17.006 12.1076 17.218C12.0996 17.426 12.0876 17.632 12.0716 17.836C12.0596 18.036 12.0396 18.232 12.0116 18.424C11.9556 18.656 11.8656 18.826 11.7416 18.934C11.6216 19.038 11.4476 19.09 11.2196 19.09C11.0796 19.09 10.9676 19.054 10.8836 18.982C10.8036 18.91 10.7516 18.808 10.7276 18.676C10.7196 18.54 10.7116 18.398 10.7036 18.25C10.6956 18.098 10.6856 17.942 10.6736 17.782C10.6656 17.618 10.6576 17.454 10.6496 17.29C10.6416 17.126 10.6336 16.964 10.6256 16.804C10.6136 16.488 10.5976 16.184 10.5776 15.892C10.5576 15.596 10.5336 15.332 10.5056 15.1C10.4816 14.864 10.4516 14.686 10.4156 14.566C10.3476 14.342 10.2696 14.172 10.1816 14.056C10.0976 13.94 9.97156 13.882 9.80356 13.882C9.66356 13.882 9.53956 13.94 9.43156 14.056C9.32756 14.168 9.24956 14.336 9.19756 14.56C9.17756 14.656 9.15356 14.778 9.12556 14.926C9.09756 15.07 9.06756 15.23 9.03556 15.406C9.00756 15.578 8.97756 15.758 8.94556 15.946C8.91756 16.13 8.88956 16.312 8.86156 16.492C8.83356 16.668 8.80756 16.832 8.78356 16.984C8.72356 17.296 8.62356 17.532 8.48356 17.692C8.34756 17.848 8.15556 17.926 7.90756 17.926C7.61156 17.926 7.39956 17.822 7.27156 17.614C7.14356 17.406 7.02756 17.126 6.92356 16.774C6.89956 16.658 6.86956 16.516 6.83356 16.348C6.79756 16.18 6.75956 16.002 6.71956 15.814C6.67956 15.622 6.63956 15.432 6.59956 15.244C6.55956 15.056 6.52156 14.886 6.48556 14.734C6.45356 14.578 6.42356 14.452 6.39556 14.356C6.34356 14.148 6.27156 13.996 6.17956 13.9C6.09156 13.804 5.98556 13.756 5.86156 13.756C5.68556 13.756 5.55756 13.822 5.47756 13.954C5.40156 14.086 5.33956 14.296 5.29156 14.584C5.27556 14.68 5.26156 14.804 5.24956 14.956C5.23756 15.108 5.22756 15.28 5.21956 15.472C5.21156 15.66 5.20356 15.862 5.19556 16.078C5.19156 16.294 5.18956 16.514 5.18956 16.738C5.18956 16.97 5.18756 17.19 5.18356 17.398C5.18356 17.606 5.17956 17.8 5.17156 17.98C5.16356 18.16 5.15356 18.32 5.14156 18.46C5.13356 18.596 5.12156 18.708 5.10556 18.796C5.06156 18.944 4.99156 19.062 4.89556 19.15C4.80356 19.242 4.67356 19.288 4.50556 19.288ZM20.3029 19.24C20.1389 19.24 19.9969 19.198 19.8769 19.114C19.7609 19.034 19.6569 18.912 19.5649 18.748C19.5289 18.64 19.4889 18.514 19.4449 18.37C19.4009 18.222 19.3569 18.072 19.3129 17.92C19.2729 17.768 19.2309 17.624 19.1869 17.488C19.1429 17.348 19.0989 17.232 19.0549 17.14C18.9989 17.012 18.9289 16.918 18.8449 16.858C18.7649 16.798 18.6449 16.756 18.4849 16.732C18.4049 16.724 18.2829 16.714 18.1189 16.702C17.9589 16.686 17.7829 16.674 17.5909 16.666C17.3989 16.654 17.2189 16.648 17.0509 16.648C16.7949 16.648 16.5349 16.654 16.2709 16.666C16.0069 16.678 15.7789 16.694 15.5869 16.714C15.4229 16.73 15.2989 16.764 15.2149 16.816C15.1349 16.864 15.0689 16.95 15.0169 17.074C14.9649 17.19 14.9109 17.33 14.8549 17.494C14.7989 17.658 14.7429 17.83 14.6869 18.01C14.6309 18.19 14.5749 18.366 14.5189 18.538C14.4349 18.73 14.3329 18.876 14.2129 18.976C14.0969 19.072 13.9349 19.12 13.7269 19.12C13.5669 19.12 13.4329 19.094 13.3249 19.042C13.2169 18.99 13.1369 18.904 13.0849 18.784C13.0329 18.664 13.0069 18.506 13.0069 18.31C13.0069 18.126 13.0329 17.906 13.0849 17.65C13.1369 17.39 13.2069 17.11 13.2949 16.81C13.3869 16.51 13.4869 16.206 13.5949 15.898C13.7069 15.59 13.8189 15.294 13.9309 15.01C14.0469 14.722 14.1569 14.464 14.2609 14.236C14.3649 14.004 14.4549 13.82 14.5309 13.684C14.6669 13.432 14.8209 13.19 14.9929 12.958C15.1689 12.726 15.3629 12.52 15.5749 12.34C15.7909 12.156 16.0269 12.012 16.2829 11.908C16.5389 11.8 16.8209 11.746 17.1289 11.746C17.6249 11.746 18.0709 11.896 18.4669 12.196C18.8669 12.496 19.2209 12.894 19.5289 13.39C19.6449 13.558 19.7609 13.776 19.8769 14.044C19.9969 14.308 20.1149 14.602 20.2309 14.926C20.3469 15.246 20.4549 15.578 20.5549 15.922C20.6549 16.266 20.7429 16.604 20.8189 16.936C20.8989 17.268 20.9589 17.574 20.9989 17.854C21.0429 18.134 21.0649 18.37 21.0649 18.562C21.0649 18.81 20.9969 18.984 20.8609 19.084C20.7249 19.188 20.5389 19.24 20.3029 19.24ZM18.5629 15.694C18.6509 15.678 18.7089 15.644 18.7369 15.592C18.7649 15.54 18.7789 15.458 18.7789 15.346C18.7789 15.222 18.7569 15.07 18.7129 14.89C18.6729 14.706 18.6169 14.514 18.5449 14.314C18.4729 14.11 18.3889 13.92 18.2929 13.744C18.1569 13.484 17.9969 13.268 17.8129 13.096C17.6289 12.92 17.4309 12.832 17.2189 12.832C16.9869 12.832 16.7649 12.924 16.5529 13.108C16.3449 13.288 16.1609 13.518 16.0009 13.798C15.9329 13.91 15.8629 14.038 15.7909 14.182C15.7189 14.326 15.6529 14.474 15.5929 14.626C15.5329 14.778 15.4829 14.922 15.4429 15.058C15.4069 15.19 15.3889 15.302 15.3889 15.394C15.3889 15.514 15.4369 15.598 15.5329 15.646C15.6289 15.69 15.7829 15.712 15.9949 15.712C16.4429 15.712 16.8309 15.712 17.1589 15.712C17.4869 15.712 17.7649 15.712 17.9929 15.712C18.2249 15.712 18.4149 15.706 18.5629 15.694ZM25.7374 19.462C25.1254 19.462 24.5774 19.374 24.0934 19.198C23.6094 19.026 23.1974 18.772 22.8574 18.436C22.5174 18.096 22.2594 17.674 22.0834 17.17C21.9074 16.666 21.8194 16.082 21.8194 15.418C21.8194 14.846 21.8994 14.346 22.0594 13.918C22.2234 13.49 22.4474 13.124 22.7314 12.82C23.0154 12.516 23.3414 12.27 23.7094 12.082C24.0814 11.894 24.4754 11.756 24.8914 11.668C25.3074 11.58 25.7274 11.536 26.1514 11.536C26.4514 11.536 26.7454 11.564 27.0334 11.62C27.3214 11.672 27.5794 11.746 27.8074 11.842C28.0394 11.938 28.2234 12.048 28.3594 12.172C28.4994 12.292 28.5694 12.422 28.5694 12.562C28.5694 12.714 28.5174 12.834 28.4134 12.922C28.3094 13.006 28.1794 13.048 28.0234 13.048C27.9274 13.048 27.8234 13.028 27.7114 12.988C27.6034 12.948 27.4734 12.902 27.3214 12.85C27.1734 12.798 26.9914 12.752 26.7754 12.712C26.5634 12.668 26.3034 12.646 25.9954 12.646C25.6274 12.646 25.2874 12.71 24.9754 12.838C24.6674 12.966 24.3974 13.15 24.1654 13.39C23.9374 13.63 23.7594 13.924 23.6314 14.272C23.5074 14.616 23.4454 15.008 23.4454 15.448C23.4454 16.096 23.5454 16.628 23.7454 17.044C23.9494 17.456 24.2434 17.76 24.6274 17.956C25.0154 18.148 25.4814 18.244 26.0254 18.244C26.3094 18.244 26.5734 18.218 26.8174 18.166C27.0654 18.11 27.2814 18.026 27.4654 17.914C27.6494 17.798 27.7934 17.654 27.8974 17.482C28.0014 17.306 28.0534 17.098 28.0534 16.858C28.0534 16.662 27.9974 16.49 27.8854 16.342C27.7734 16.19 27.6054 16.07 27.3814 15.982C27.1614 15.89 26.8874 15.838 26.5594 15.826C26.2234 15.802 25.9594 15.754 25.7674 15.682C25.5794 15.61 25.4854 15.478 25.4854 15.286C25.4854 15.134 25.5434 15.016 25.6594 14.932C25.7794 14.848 25.9494 14.79 26.1694 14.758C26.3894 14.722 26.6534 14.704 26.9614 14.704C27.3694 14.704 27.7374 14.744 28.0654 14.824C28.3974 14.9 28.6794 15.02 28.9114 15.184C29.1434 15.344 29.3214 15.55 29.4454 15.802C29.5694 16.054 29.6314 16.352 29.6314 16.696C29.6314 17.208 29.5334 17.642 29.3374 17.998C29.1454 18.354 28.8734 18.64 28.5214 18.856C28.1734 19.068 27.7634 19.222 27.2914 19.318C26.8194 19.414 26.3014 19.462 25.7374 19.462ZM33.1081 19.372C32.6001 19.372 32.1721 19.28 31.8241 19.096C31.4761 18.912 31.2061 18.634 31.0141 18.262C30.8261 17.89 30.7021 17.42 30.6421 16.852C30.6261 16.716 30.6141 16.576 30.6061 16.432C30.5981 16.284 30.5901 16.132 30.5821 15.976C30.5781 15.816 30.5761 15.652 30.5761 15.484C30.5761 15.316 30.5761 15.144 30.5761 14.968C30.5761 14.284 30.6421 13.72 30.7741 13.276C30.9061 12.828 31.1121 12.478 31.3921 12.226C31.6761 11.974 32.0381 11.796 32.4781 11.692C32.9221 11.588 33.4501 11.536 34.0621 11.536C34.3621 11.536 34.6481 11.55 34.9201 11.578C35.1961 11.602 35.4401 11.64 35.6521 11.692C35.8641 11.744 36.0301 11.81 36.1501 11.89C36.2741 11.966 36.3361 12.058 36.3361 12.166C36.3361 12.278 36.3021 12.368 36.2341 12.436C36.1701 12.5 36.0861 12.542 35.9821 12.562C35.8581 12.578 35.6941 12.582 35.4901 12.574C35.2861 12.562 35.0621 12.55 34.8181 12.538C34.5741 12.526 34.3261 12.52 34.0741 12.52C33.7141 12.52 33.4121 12.548 33.1681 12.604C32.9241 12.656 32.7281 12.744 32.5801 12.868C32.4321 12.992 32.3261 13.16 32.2621 13.372C32.1981 13.584 32.1661 13.846 32.1661 14.158C32.1661 14.318 32.1861 14.44 32.2261 14.524C32.2701 14.604 32.3701 14.658 32.5261 14.686C32.6821 14.71 32.9321 14.722 33.2761 14.722C33.3601 14.722 33.4641 14.722 33.5881 14.722C33.7121 14.718 33.8401 14.714 33.9721 14.71C34.1081 14.706 34.2341 14.704 34.3501 14.704C34.4701 14.704 34.5641 14.704 34.6321 14.704C34.9321 14.704 35.1401 14.742 35.2561 14.818C35.3721 14.894 35.4301 15.006 35.4301 15.154C35.4301 15.366 35.3601 15.512 35.2201 15.592C35.0841 15.668 34.9021 15.706 34.6741 15.706C34.5741 15.706 34.4641 15.706 34.3441 15.706C34.2241 15.706 34.0981 15.708 33.9661 15.712C33.8381 15.712 33.7141 15.712 33.5941 15.712C33.4741 15.712 33.3661 15.712 33.2701 15.712C32.9141 15.712 32.6501 15.724 32.4781 15.748C32.3061 15.768 32.1941 15.816 32.1421 15.892C32.0941 15.964 32.0701 16.08 32.0701 16.24C32.0701 16.504 32.0821 16.742 32.1061 16.954C32.1301 17.162 32.1721 17.344 32.2321 17.5C32.2921 17.652 32.3761 17.778 32.4841 17.878C32.5961 17.978 32.7381 18.054 32.9101 18.106C33.0821 18.154 33.2901 18.178 33.5341 18.178C33.8381 18.178 34.1361 18.168 34.4281 18.148C34.7201 18.128 34.9841 18.11 35.2201 18.094C35.4561 18.074 35.6401 18.064 35.7721 18.064C35.9521 18.064 36.0841 18.102 36.1681 18.178C36.2521 18.25 36.2941 18.358 36.2941 18.502C36.2941 18.662 36.1941 18.798 35.9941 18.91C35.7981 19.022 35.5401 19.112 35.2201 19.18C34.9041 19.248 34.5601 19.296 34.1881 19.324C33.8161 19.356 33.4561 19.372 33.1081 19.372Z" fill="#ADADAD"/>
</svg>
